<?xml version="1.0" encoding="UTF-8"?>
<svg id="Capa_1" data-name="Capa 1" xmlns="http://www.w3.org/2000/svg" viewBox="0 0 32 32">
  <defs>
    <style>
      .cls-1 {
        fill: #27251f;
      }
    </style>
  </defs>
  <path class="cls-1" d="m16,0C7.16,0,0,7.16,0,16s7.16,16,16,16,16-7.16,16-16S24.84,0,16,0Zm8.79,14.17c-.6,0-1.18-.08-1.76-.21-1-.23-1.92-.63-2.77-1.19-.04-.03-.09-.09-.14-.07-.06.03-.03.11-.03.16,0,2.3,0,4.59,0,6.88,0,1.6-.52,3.04-1.57,4.26-1.12,1.3-2.53,2.05-4.23,2.26-1.31.16-2.56-.08-3.74-.66-.19-.09-.37-.2-.54-.33-.05-.05-.11-.1-.16-.14,0,0,0,0,0,0-.13-.06-.23-.15-.34-.23-1.05-.84-1.8-1.89-2.21-3.17-.14-.45-.23-.9-.27-1.37-.03-.34-.04-.68-.01-1.01.05-.78.23-1.52.56-2.24.34-.74.79-1.4,1.38-1.97.68-.66,1.46-1.16,2.36-1.48.56-.2,1.14-.32,1.73-.37.43-.03.86-.02,1.29.03.06,0,.09.02.09.09,0,.24,0,.48,0,.71,0,0,.04,1.81.03,2.64,0,.03,0,.06,0,.09,0,.08-.05.11-.12.09-.23-.06-.46-.09-.69-.11-.36-.02-.72.03-1.06.16-1.14.42-1.83,1.23-1.97,2.43-.14,1.18.32,2.13,1.31,2.81.08.06.17.11.24.17.02.02.04.03.06.05.23.09.46.18.7.23.77.15,1.5.03,2.17-.38.77-.48,1.23-1.17,1.39-2.07.03-.17.04-.34.04-.51,0-4.61,0-9.22,0-13.82,0-.21-.03-.19.18-.19,1.06,0,2.13,0,3.19,0,.03,0,.05,0,.08,0,.11,0,.11,0,.11.11,0,.25.1.82.11.87.46,2.33,3.17,3.75,4.01,3.88.23.03.46.06.7.06.1,0,.1,0,.1.1,0,.22.04,2.44.04,3.26,0,.19-.03.2-.21.2Z"/>
</svg>